Coordinates
version=1
nRows=6
nColumns=46
inDegrees=yes

Units are S.I. units (second, meters, Newtons, ...)
Angles are in degrees.

endheader
time	pelvis_tilt	pelvis_list	pelvis_rotation	pelvis_tx	pelvis_ty	pelvis_tz	bb_angle	bb_tx	bb_ty	bb_tz	hip_flexion_r	hip_adduction_r	hip_rotation_r	knee_angle_r	knee_angle_r_beta	ankle_angle_r	subtalar_angle_r	mtp_angle_r	crank_angle_r	hip_flexion_l	hip_adduction_l	hip_rotation_l	knee_angle_l	knee_angle_l_beta	ankle_angle_l	subtalar_angle_l	mtp_angle_l	crank_angle_l	lumbar_extension	lumbar_bending	lumbar_rotation	arm_flex_r	arm_add_r	arm_rot_r	elbow_flex_r	pro_sup_r	wrist_flex_r	wrist_dev_r	arm_flex_l	arm_add_l	arm_rot_l	elbow_flex_l	pro_sup_l	wrist_flex_l	wrist_dev_l
      2.50500000	    -26.76694532	     12.23394638	     -3.64608448	      0.31614752	      1.15302416	     -0.28166221	      0.00000000	      0.50000000	      0.00000000	      0.25000000	     32.42601520	    -14.86369184	      1.45715917	     29.06791245	      0.50733078	    -19.44817000	     -8.41395632	      0.00000000	      0.00000000	     82.66570766	      3.75198806	     -4.20959658	    104.24022318	      1.81933511	      2.62535115	    -16.23030129	      0.00000000	      0.00000000	    -58.15940973	     -7.27639068	     -7.23558376	     43.34922543	    -34.22247180	     14.23430435	     98.32994269	     50.31027411	      0.00000000	      0.00000000	     40.52498357	    -37.81284634	     18.59302327	    101.58720409	     52.36372825	      0.00000000	      0.00000000
      2.51000000	    -27.10107221	     12.29590280	     -3.40479927	      0.31603843	      1.15593697	     -0.28214115	      0.00000000	      0.50000000	      0.00000000	      0.25000000	     33.06365967	    -14.92066853	      1.95488966	     30.26421159	      0.52821014	    -20.01689660	     -9.31378082	      0.00000000	      0.00000000	     82.09707724	      3.98484747	     -4.34293085	    102.38847568	      1.78701602	      3.75558297	    -16.48005117	      0.00000000	      0.00000000	    -58.52253938	     -7.41302296	     -7.60501653	     43.26386114	    -34.01963970	     13.50665622	     98.36240915	     50.26438510	      0.00000000	      0.00000000	     41.08287924	    -38.13202597	     18.86540871	    102.24956083	     52.48928110	      0.00000000	      0.00000000
      2.51500000	    -27.34673628	     12.21099487	     -3.23210263	      0.31613384	      1.15866091	     -0.28235422	      0.00000000	      0.50000000	      0.00000000	      0.25000000	     33.64334926	    -14.78467033	      2.49125140	     31.56283739	      0.55087543	    -20.57081900	    -10.20374940	      0.00000000	      0.00000000	     81.33261355	      4.09642378	     -4.38353481	    100.48034246	      1.75371281	      4.97970330	    -16.83552350	      0.00000000	      0.00000000	    -58.91360751	     -7.44954924	     -7.79143560	     43.14161838	    -33.78677677	     12.70412522	     98.47358259	     50.22999813	      0.00000000	      0.00000000	     41.62405077	    -38.47277470	     19.15396320	    102.86736757	     52.60742869	      0.00000000	      0.00000000
      2.52000000	    -27.63875203	     11.99481315	     -3.03131209	      0.31630957	      1.16105046	     -0.28259228	      0.00000000	      0.50000000	      0.00000000	      0.25000000	     34.31824387	    -14.53737645	      2.93441498	     33.01176434	      0.57616398	    -20.97605996	    -11.06122988	      0.00000000	      0.00000000	     80.55679407	      4.16188934	     -4.30394963	     98.50536234	      1.71924290	      6.09009022	    -17.35147398	      0.00000000	      0.00000000	    -59.20135695	     -7.37778596	     -7.82249514	     43.18089241	    -33.59709365	     12.05153335	     98.44150094	     50.15099471	      0.00000000	      0.00000000	     41.99649885	    -38.37122144	     18.98736341	    103.14612867	     52.58601247	      0.00000000	      0.00000000
      2.52500000	    -27.76890042	     11.85273068	     -2.99807261	      0.31677030	      1.16350929	     -0.28241543	      0.00000000	      0.50000000	      0.00000000	      0.25000000	     34.88126143	    -14.26319809	      3.63849020	     34.47030635	      0.60162034	    -21.43010736	    -11.76071669	      0.00000000	      0.00000000	     79.49044719	      4.06477610	     -4.40014280	     96.42716725	      1.68297156	      7.28256679	    -17.69692242	      0.00000000	      0.00000000	    -59.68213305	     -7.48857853	     -7.81250677	     42.76584000	    -33.40818332	     11.05201036	     98.85894064	     49.95264111	      0.00000000	      0.00000000	     42.45716759	    -38.93445030	     19.50761331	    104.03418845	     52.42768391	      0.00000000	      0.00000000
      2.53000000	    -27.98560538	     11.58647626	     -2.76928891	      0.31728293	      1.16539598	     -0.28268817	      0.00000000	      0.50000000	      0.00000000	      0.25000000	     35.57141860	    -14.00045419	      4.09032595	     36.21811668	      0.63212539	    -21.55782360	    -12.45053637	      0.00000000	      0.00000000	     78.53716649	      4.15873818	     -4.29219564	     94.32810716	      1.64633605	      8.37155779	    -18.16532785	      0.00000000	      0.00000000	    -59.94560504	     -7.34993004	     -7.85186695	     42.83633506	    -33.30001374	     10.56192657	     98.78178185	     49.84531632	      0.00000000	      0.00000000	     42.76596885	    -38.62341671	     19.28574623	    104.19251074	     52.32680543	      0.00000000	      0.00000000
